<?xml version="1.0" standalone="no"?><!DOCTYPE svg PUBLIC "-//W3C//DTD SVG 1.1//EN" "http://www.w3.org/Graphics/SVG/1.1/DTD/svg11.dtd"><svg t="1552791026984" class="icon" style="" viewBox="0 0 1024 1024" version="1.1" xmlns="http://www.w3.org/2000/svg" p-id="1111" xmlns:xlink="http://www.w3.org/1999/xlink" width="200" height="200"><defs><style type="text/css"></style></defs><path d="M848.83242763 746.63786533l-336.6768331-336.67773223-341.10003427 341.10093341-0.02967979-0.06205781c-11.54637158 11.17042646-27.26771222 18.04356651-44.58816914 18.0435665-35.48723994 0-64.2587326-28.77239268-64.25873262-64.26143086 0-17.31955693 6.87224092-33.03909932 18.04266738-44.58727002l-0.0314789-0.03057891L465.74975761 274.59920761l0.03147892 0.03147892c11.67318546-12.11118838 28.05108136-19.67326172 46.21786436-19.67326172 0.06295694 0 0.09353672 0 0.15649364 0 0.06385693 0 0.09533496 0 0.12681386 0 18.16678301 0 34.57705693 7.56207334 46.25024239 19.67326172l0.03057891-0.03147891L944.12551924 660.16059717l-0.15739364 0.15829277c11.04451171 11.5481707 17.85379482 27.20295615 17.85379481 44.46135527 0 35.48903817-28.77239268 64.26143085-64.26053174 64.26143086C878.07699951 769.04077607 860.63152784 760.34996915 848.83242763 746.63786533z" p-id="1112"></path></svg>