<svg width="99" height="24" viewBox="0 0 99 24" xmlns="http://www.w3.org/2000/svg" xmlns:xlink="http://www.w3.org/1999/xlink"><title>HeaderLogoMobile</title><defs><path d="M.37.578C.236.715.226.933.346 1.08c.007.01.016.02.026.03.017.017.034.032.053.045l.107.105c.7.704 1.138 1.57 1.317 2.48.002.053.01.103.016.154.01.055.02.11.036.167.07.256.203.498.4.7.61.615 1.6.615 2.208 0 .61-.616.61-1.613 0-2.228-.215-.215-.477-.357-.752-.42-.03-.007-.062-.014-.094-.018-.03-.006-.062-.01-.094-.014-.923-.173-1.805-.62-2.52-1.342C.997.684.95.63.9.578.826.504.73.468.635.468S.445.504.37.578z" id="a"/><path d="M2.066 1.206c-.215.217-.353.48-.417.76-.01.03-.015.062-.02.094-.005.032-.01.063-.013.095-.172.93-.615 1.822-1.33 2.544-.05.05-.104.1-.156.15-.145.147-.145.385 0 .532.137.137.35.146.5.026l.03-.027c.014-.015.03-.033.042-.05.034-.038.068-.074.104-.11.698-.705 1.557-1.15 2.458-1.33.05-.003.1-.01.152-.016.055-.008.11-.022.165-.036.254-.07.49-.205.69-.407.61-.614.61-1.61 0-2.226-.3-.304-.7-.458-1.1-.458-.4 0-.8.153-1.104.46z" id="b"/><path d="M.764.65c-.61.615-.61 1.612 0 2.228.214.216.476.356.752.42l.093.02.092.012c.924.174 1.806.62 2.52 1.34l.15.16c.146.148.382.148.528 0 .137-.137.146-.355.027-.503l-.026-.03c-.015-.016-.032-.03-.05-.043l-.11-.105c-.697-.708-1.136-1.575-1.315-2.484-.003-.05-.01-.102-.017-.152-.008-.056-.02-.112-.035-.167C3.303 1.093 3.17.85 2.97.65 2.665.342 2.266.19 1.867.19c-.4 0-.8.152-1.103.46z" id="c"/><path d="M4.64.778c-.008.01-.02.017-.027.027-.017.017-.03.034-.045.053l-.103.108c-.698.705-1.558 1.15-2.46 1.33-.05.003-.1.008-.15.017-.056.01-.11.02-.165.036-.252.067-.493.203-.692.403-.61.615-.61 1.612 0 2.227.61.617 1.598.617 2.207 0 .215-.214.353-.48.417-.758.008-.03.013-.062.018-.093.006-.034.01-.066.014-.098.172-.932.615-1.823 1.328-2.543.053-.053.105-.105.158-.153.146-.148.146-.386 0-.533-.074-.073-.17-.11-.265-.11-.083 0-.166.028-.234.083z" id="d"/></defs><g fill="none" fill-rule="evenodd"><path d="M30.63 9.22c2.814-1.42 5.353-3.396 7.352-5.72H39.1c2.092 2.392 4.62 4.353 7.325 5.676l-.806 1.473c-2.717-1.444-5.058-3.33-6.96-5.605l-.12-.142-.12.143c-1.775 2.15-4.14 4.04-7.026 5.617L30.63 9.22zm.7 9.48v-1.42h2.566v-6.638h1.41v6.64h3.028V8.13h1.45v3.807h4.5v1.42h-4.5v3.924h5.76v1.42H31.33zM48.957 7.362c.913 2.59 1.62 5.045 2.157 7.5l1.336-.328c-.597-2.63-1.334-5.117-2.25-7.595l-1.243.42zm10.68 7.09l1.267.45c.915-2.067 1.68-4.516 2.34-7.478l-1.29-.37c-.804 3.415-1.503 5.65-2.318 7.398zM48.553 18.7H63.66v-1.464h-5.19V3.603h-1.5v13.633h-1.953V3.603h-1.5v13.633h-4.963V18.7zm21.41-10.176h5.27V4.448h-.976V7.41h-1.112V3.506l-1.12-.007.038 3.91H70.93V4.447h-.966v4.076zm-4.624-.62l.644 1.218c1.488-1.36 2.615-3.003 3.35-4.884l-1.14-.617c-.62 1.556-1.722 3.208-2.856 4.286zm13.16 5.263l-.16-.52c-.323-1.035-.646-2.47-.913-4.047l-.006-.034.01-.033c.053-.196.08-.337.105-.486.025-.142.052-.29.103-.495l.028-.117h1.617l-.006.16c-.076 2.014-.286 3.663-.643 5.045l-.137.527zm-9.245 4.964l.92.963c.947-1.056 1.442-2.547 1.473-4.435v-.937h1.654v2.717c-.052.26-.172.463-.35.606l.584 1.105 2.617-2.18-.34-1.05-1.252 1.067v-3.43H70.3v2.106c-.02 1.65-.332 2.7-1.046 3.47zm-1.986 1.197h1.19l.025-8.86c.33-.61.583-1.135.767-1.6l-1.105-.6c-.524 1.406-1.52 2.898-2.822 4.232l.597 1.125c.238-.237.482-.517.72-.788.123-.142.243-.28.358-.407l.27-.298v7.194zm2.583-8.18h5.21V9.963h-5.21v1.185zm8.655 4.9l.13.273c.574 1.197 1.24 2.256 1.81 2.883l.85-1.26c-.706-.665-1.5-1.85-2.147-3.214l-.027-.06.023-.064c.777-2.067 1.16-4.233 1.245-7.02l.006-.152h.744V6.202h-3.208l.03-.18c.086-.525.164-1.154.24-1.763l.07-.547-1.245-.224c-.317 3.007-.878 5.495-1.668 7.4l-.19.45.766 1.012c.188-.362.384-.78.62-1.325l.194-.445.1.475c.27 1.276.598 2.47.977 3.55l.022.057-.026.058c-.554 1.265-1.384 2.43-2.347 3.294l.765 1.036c.818-.77 1.567-1.738 2.12-2.742l.144-.263zm10.54-6.452h8.55v-1.25h-8.55v1.25zm.026 2.606h8.548l-.002-1.252h-8.536l-.01 1.254zm1.364 5.58h5.95v-2.883h-5.95v2.884zM89.086 19h8.628v-5.37h-8.628V19zM87.834 7.045H98.89V5.73h-4.882l-.765-2.04-1.347.367.672 1.673h-4.734v1.316zm-2.794 12.28h1.38l.018-11.756c.54-1.032.987-2.167 1.4-3.564l-1.353-.636c-.83 2.912-1.97 5.114-3.483 6.72l.56 1.552.3-.336c.31-.342.63-.696.9-1.06l.278-.374v9.454z" fill="#0082EF"/><use fill="#FB6500" xlink:href="#a" transform="translate(17.815 18.284)"/><use fill="#0082EF" xlink:href="#b" transform="translate(22.463 15.166)"/><use fill="#2DBC00" xlink:href="#c" transform="translate(19.364 11.268)"/><use fill="#FC0" xlink:href="#d" transform="translate(14.717 13.607)"/><path d="M11.337.81c-.455 0-.927.026-1.4.08-2.777.302-5.297 1.5-7.102 3.37-.71.737-1.29 1.56-1.72 2.448-.587 1.204-.883 2.48-.883 3.794 0 1.692.51 3.362 1.475 4.827.505.763 1.32 1.705 2.032 2.342l.04.035v.053l-.35 2.726c-.01.028-.02.056-.027.084-.006.026-.008.053-.01.08l-.006.05c-.002.01-.004.022-.004.034 0 .014.003.027.004.04l.005.037c.04.388.357.68.74.68.126 0 .25-.035.368-.102l.06-.036 3.257-1.65.044.014c.65.187 1.33.32 2.077.403.94.103 1.87.104 2.863-.01.85-.097 1.7-.287 2.523-.563-.01-.004-.016-.01-.025-.015-.52-.3-.84-.86-.843-1.458-.61.186-1.238.316-1.868.39-.843.093-1.644.093-2.447.006l-.155-.02-.09-.014c-.556-.074-1.095-.188-1.606-.34-.24-.075-.503-.06-.77.08-.034.017-.048.024-.06.033l-2.055 1.22c-.21.12-.398-.01-.398-.203L5.317 18l.16-.618c.02-.07.038-.143.038-.225 0-.23-.11-.446-.29-.58-.11-.08-.22-.166-.333-.26-.17-.14-.338-.29-.503-.447-.457-.436-.855-.91-1.185-1.413-.787-1.196-1.203-2.552-1.203-3.923 0-1.065.24-2.1.716-3.077.353-.728.83-1.405 1.417-2.016 1.52-1.57 3.65-2.58 6.004-2.84.844-.09 1.62-.087 2.446.008 2.343.27 4.463 1.283 5.968 2.855.585.61 1.06 1.29 1.412 2.02.467.97.704 1.997.704 3.052v.123c.583-.268 1.268-.175 1.76.242.008-.137.01-.27.01-.398 0-1.302-.29-2.568-.866-3.762-.43-.89-1.005-1.714-1.713-2.454-1.79-1.87-4.296-3.073-7.06-3.39C12.304.84 11.81.81 11.337.81" fill="#0082F0"/></g></svg>