<svg width="152" height="124" viewBox="0 0 152 124" xmlns="http://www.w3.org/2000/svg" xmlns:xlink="http://www.w3.org/1999/xlink"><svg width="6" height="12" viewBox="0 0 6 12" x="102" y="60" xmlns="http://www.w3.org/2000/svg"><path stroke="#5D646E" stroke-width="1.2" d="M1.7 2.7l3 3.3-3 3.3" fill="none"/></svg><svg width="6" height="12" viewBox="0 0 6 12" x="96" y="60" xmlns="http://www.w3.org/2000/svg"><path stroke="#0085DD" stroke-width="1.2" d="M1.7 2.7l3 3.3-3 3.3" fill="none"/></svg><svg width="120" height="30" viewBox="0 0 120 30" xmlns="http://www.w3.org/2000/svg"><defs><path d="M.445.694a.453.453 0 0 0 .062.69 5.807 5.807 0 0 1 1.71 3.105 2.01 2.01 0 0 0 .063.382 1.9 1.9 0 0 0 .482.837 1.86 1.86 0 0 0 2.648 0c.73-.74.73-1.935 0-2.673a1.853 1.853 0 0 0-1.015-.528c-.037-.008-.075-.01-.113-.018A5.716 5.716 0 0 1 1.26.882C1.196.82 1.138.76 1.08.693a.44.44 0 0 0-.634 0z" id="a"/><path d="M2.48 1.447a1.892 1.892 0 0 0-.538 1.14A5.83 5.83 0 0 1 .158 5.82a.455.455 0 0 0 0 .64.444.444 0 0 0 .598.03c.012-.01.025-.02.035-.03a.465.465 0 0 0 .054-.063A5.728 5.728 0 0 1 3.918 4.67a1.828 1.828 0 0 0 .38-.064c.304-.083.59-.244.83-.486a1.902 1.902 0 0 0 0-2.673 1.86 1.86 0 0 0-2.65 0z" id="b"/><path d="M.916.78a1.903 1.903 0 0 0 0 2.674 1.87 1.87 0 0 0 1.015.526c.04.006.077.012.115.016a5.734 5.734 0 0 1 3.204 1.8.446.446 0 0 0 .632 0 .456.456 0 0 0-.06-.69c-.045-.043-.09-.084-.13-.127A5.83 5.83 0 0 1 4.107 2a1.495 1.495 0 0 0-.02-.183A1.89 1.89 0 0 0 3.564.78a1.86 1.86 0 0 0-2.65 0z" id="c"/><path d="M5.57.934c-.012.01-.025.02-.035.03a.564.564 0 0 0-.053.065l-.124.13a5.733 5.733 0 0 1-2.95 1.595 1.856 1.856 0 0 0-1.21.55 1.902 1.902 0 0 0 0 2.672 1.86 1.86 0 0 0 2.648 0c.258-.26.424-.577.5-.91.01-.038.016-.076.023-.114l.013-.115a5.828 5.828 0 0 1 1.784-3.235.454.454 0 0 0 0-.64.45.45 0 0 0-.6-.03z" id="d"/></defs><g fill="none" fill-rule="evenodd"><path d="M36.755 12.264c3.378-1.705 6.424-4.075 8.823-6.866h1.34c2.513 2.872 5.547 5.225 8.79 6.814l-.965 1.767c-3.258-1.733-6.068-3.994-8.352-6.726l-.142-.17-.14.17c-2.13 2.582-4.968 4.85-8.433 6.74l-.92-1.73zm.842 11.376v-1.703h3.078V13.97h1.694v7.967H46v-10.98h1.74v4.567h5.4v1.704h-5.4v4.71h6.912v1.702H37.597zM58.75 10.035c1.094 3.106 1.942 6.053 2.587 8.998l1.604-.392a72.12 72.12 0 0 0-2.7-9.112l-1.49.508zm12.813 8.507l1.522.54c1.098-2.48 2.017-5.42 2.808-8.973l-1.55-.445c-.962 4.097-1.802 6.78-2.78 8.876zm-13.3 5.098h18.13v-1.757h-6.228V5.523h-1.8v16.36H66.02V5.523h-1.8v16.36h-5.956v1.757zm25.693-12.212h6.326v-4.89H89.11v3.555h-1.335V5.408l-1.345-.01.046 4.695h-1.36V6.538h-1.16v4.89zm-5.55-.742l.776 1.46a15.533 15.533 0 0 0 4.02-5.86l-1.37-.74c-.743 1.865-2.064 3.847-3.425 5.14zM94.2 17l-.193-.624c-.385-1.24-.773-2.965-1.093-4.856l-.008-.04.012-.04c.063-.235.093-.404.125-.583.03-.17.062-.35.124-.594l.034-.14h1.94l-.005.192c-.09 2.416-.34 4.395-.77 6.053L94.2 17zm-11.092 5.957l1.104 1.154c1.136-1.266 1.73-3.055 1.767-5.32v-1.125h1.984v3.26a1.21 1.21 0 0 1-.42.726l.7 1.327 3.14-2.616-.406-1.26-1.504 1.28v-4.116h-5.112v2.53c-.023 1.98-.4 3.24-1.256 4.164zm-2.383 1.434h1.425l.033-10.63c.398-.73.7-1.36.92-1.92l-1.325-.72c-.63 1.687-1.824 3.478-3.387 5.08l.718 1.35c.287-.284.58-.62.864-.946.15-.17.294-.336.43-.488l.325-.356v8.63zm3.1-9.813h6.252v-1.422h-6.252v1.422zm10.385 5.88l.157.326c.69 1.438 1.49 2.71 2.173 3.462l1.02-1.513c-.847-.796-1.8-2.22-2.576-3.855l-.035-.072.026-.074c.933-2.48 1.394-5.08 1.495-8.426l.007-.18h.892v-1.48h-3.85l.036-.217c.103-.63.197-1.385.287-2.115l.083-.653-1.492-.27c-.38 3.61-1.052 6.595-2 8.88l-.226.54.916 1.215c.227-.435.463-.938.747-1.59l.23-.535.123.57a34.226 34.226 0 0 0 1.172 4.26l.025.07-.03.067c-.664 1.52-1.66 2.915-2.816 3.953l.918 1.244a13.677 13.677 0 0 0 2.543-3.29l.173-.317zm12.647-7.742h10.26v-1.5h-10.26v1.5zm.03 3.127h10.26l-.003-1.504H106.9l-.012 1.505zm1.64 6.696h7.14v-3.46h-7.14v3.46zM106.903 24h10.354v-6.446h-10.354V24zM105.4 9.656h13.27v-1.58h-5.86l-.918-2.448-1.617.44.806 2.008h-5.68v1.58zm-3.353 14.735h1.657l.022-14.106c.65-1.237 1.184-2.6 1.68-4.276l-1.624-.763c-.997 3.495-2.366 6.137-4.18 8.064l.672 1.86.362-.402c.37-.41.753-.835 1.077-1.27l.334-.45V24.39z" fill="#0082EF"/><use fill="#FB6500" xlink:href="#a" transform="translate(21.378 23.14)"/><use fill="#0082EF" xlink:href="#b" transform="translate(26.955 19.4)"/><use fill="#2DBC00" xlink:href="#c" transform="translate(23.237 14.72)"/><use fill="#FC0" xlink:href="#d" transform="translate(17.66 17.528)"/><path d="M13.604 2.172c-.546 0-1.112.032-1.68.094-3.33.366-6.357 1.804-8.522 4.048a11.47 11.47 0 0 0-2.065 2.938 10.325 10.325 0 0 0-1.058 4.55c0 2.03.61 4.034 1.77 5.793.604.918 1.584 2.048 2.437 2.812l.047.042v.062l-.418 3.27c-.012.034-.025.067-.032.1-.008.032-.01.065-.012.098l-.008.06c-.002.014-.004.027-.004.04 0 .018.004.033.006.05l.006.044a.895.895 0 0 0 .886.812.878.878 0 0 0 .443-.122l.073-.042 3.908-1.98.054.014c.778.226 1.593.384 2.49.484a15.084 15.084 0 0 0 6.465-.686 2.035 2.035 0 0 1-1.04-1.768c-.736.224-1.49.38-2.244.467a13.232 13.232 0 0 1-2.937.008l-.187-.022-.11-.016a12.597 12.597 0 0 1-1.925-.407 1.17 1.17 0 0 0-.92.097.8.8 0 0 0-.076.038l-2.465 1.467c-.252.147-.476-.012-.476-.242l.37-1.475.195-.74a.866.866 0 0 0-.305-.965 11.008 11.008 0 0 1-1.003-.85 9.906 9.906 0 0 1-1.42-1.695c-.945-1.435-1.444-3.062-1.444-4.707 0-1.278.29-2.52.86-3.69a9.46 9.46 0 0 1 1.702-2.42c1.822-1.888 4.38-3.1 7.204-3.408a12.83 12.83 0 0 1 2.934.006c2.81.324 5.354 1.54 7.16 3.427a9.44 9.44 0 0 1 1.695 2.425 8.367 8.367 0 0 1 .842 3.808c.7-.32 1.522-.21 2.114.29a10.325 10.325 0 0 0-1.03-4.99 11.46 11.46 0 0 0-2.054-2.945c-2.147-2.245-5.156-3.69-8.472-4.07a15.44 15.44 0 0 0-1.756-.103" fill="#0082F0"/></g></svg><svg width="32" height="32" viewBox="0 0 32 32" x="32" y="60" xmlns="http://www.w3.org/2000/svg"><g fill="#0085DD" fill-rule="evenodd"><path d="M5 6h23a1 1 0 0 1 1 1v18a1 1 0 0 1-1 1H5a1 1 0 0 1-1-1V7a1 1 0 0 1 1-1zm6 11.25a1.25 1.25 0 1 0 0-2.5 1.25 1.25 0 0 0 0 2.5zm5.5 0a1.25 1.25 0 1 0 0-2.5 1.25 1.25 0 0 0 0 2.5zm5.5 0a1.25 1.25 0 1 0 0-2.5 1.25 1.25 0 0 0 0 2.5z"/><path d="M5 12l-4 3.94L5 20z"/></g></svg><svg width="32" height="32" viewBox="0 0 32 32" x="64" y="60" xmlns="http://www.w3.org/2000/svg"><g fill="#0085DD" fill-rule="evenodd"><path d="M25.666 18.632c-.714 0-1.285-.596-1.285-1.342 0-.746.573-1.343 1.287-1.343s1.285.597 1.285 1.343c0 .708-.57 1.342-1.284 1.342m-6.333 0c-.714 0-1.285-.596-1.285-1.342 0-.746.57-1.343 1.285-1.343.714 0 1.285.597 1.285 1.343 0 .708-.57 1.342-1.285 1.342m9.398 7.537C30.736 24.66 32 22.42 32 19.96c0-4.558-4.218-8.233-9.455-8.233-5.236 0-9.454 3.675-9.454 8.23 0 4.558 4.22 8.233 9.456 8.233 1.09 0 2.11-.147 3.093-.44.07-.038.175-.038.28-.038.176 0 .35.073.493.147l2.073 1.25c.07.034.106.07.176.07a.322.322 0 0 0 .317-.33c0-.073-.036-.147-.036-.257 0-.037-.28-1.03-.422-1.654-.035-.074-.035-.148-.035-.22a.527.527 0 0 1 .246-.55"/><path d="M15.515 11.033c-.845 0-1.514-.66-1.514-1.494s.67-1.497 1.516-1.497c.845 0 1.514.66 1.514 1.495 0 .8-.67 1.493-1.515 1.493m-7.757 0c-.845 0-1.514-.66-1.514-1.493s.67-1.496 1.514-1.496S9.27 8.7 9.27 9.537c0 .8-.667 1.493-1.51 1.493M11.727 3C5.264 3 0 7.287 0 12.61c0 2.894 1.56 5.502 4.066 7.253a.806.806 0 0 1 .327.643c0 .07-.036.178-.036.25-.182.714-.508 1.893-.545 1.93-.036.106-.072.177-.072.285a.4.4 0 0 0 .4.395c.072 0 .144-.036.217-.072l2.578-1.465c.18-.107.4-.178.617-.178.11 0 .218 0 .327.035 1.196.32 2.503.535 3.81.535h.653a7.31 7.31 0 0 1-.4-2.357c0-4.823 4.793-8.753 10.675-8.753h.653C22.44 6.5 17.574 3 11.728 3"/></g></svg><svg width="32" height="32" viewBox="0 0 32 32" x="120" xmlns="http://www.w3.org/2000/svg"><g fill="#0085DD" fill-rule="evenodd"><path d="M20.77 17.28a9.566 9.566 0 0 0 1.21-4.67A9.61 9.61 0 0 0 12.367 3C7.234 3 3.04 7.027 2.773 12.095H2.77l-.21 1.87a17.18 17.18 0 0 1-1.047 4.266l-.483 1.25a.6.6 0 0 0 .56.818h2.13v2.766a3 3 0 0 0 3 3h.844V29h10.57v-1.093a20 20 0 0 1 1.29-7.064l1.345-3.562z"/><path d="M10.52 17.497a10.248 10.248 0 0 1-1.27-4.955c0-5.684 4.608-10.292 10.292-10.292 5.454 0 9.95 4.253 10.274 9.667l.208 1.852a14.31 14.31 0 0 0 1.078 4.056l.523 1.215a1.35 1.35 0 0 1-1.24 1.885H28.88V22.9a3.75 3.75 0 0 1-3.75 3.75h-.067v3.1H13.067v-1.993c0-2.323-.42-4.626-1.24-6.8l-1.308-3.46z" stroke="#FFF" stroke-width="1.5"/></g></svg><svg width="32" height="32" viewBox="0 0 32 32" y="60" xmlns="http://www.w3.org/2000/svg"><g fill="none" fill-rule="evenodd"><rect fill="#0085DD" x="1" y="19" width="9" height="9" rx=".5"/><rect fill="#0085DD" x="12" y="19" width="9" height="9" rx=".5"/><rect fill="#0085DD" x="12" y="2" width="8" height="8" rx=".5"/><rect fill="#0085DD" x="23" y="19" width="9" height="9" rx=".5"/><path d="M5.5 20.15v-5.564a.5.5 0 0 1 .5-.5h21a.5.5 0 0 1 .5.5v5.596" stroke="#0085DD" stroke-width="1.5"/></g></svg><svg width="32" height="32" viewBox="0 0 32 32" x="120" y="32" xmlns="http://www.w3.org/2000/svg"><g fill="#0085DD" fill-rule="evenodd"><path d="M16 16l15 5.625a.4.4 0 0 1 0 .75L16 28 1 22.375a.4.4 0 0 1 0-.75L16 16z"/><path d="M16 9.146l15.282 5.73a1.2 1.2 0 0 1 0 2.248L16 22.854.718 17.124a1.2 1.2 0 0 1 0-2.248L16 9.146z" stroke="#FFF" stroke-width="1.6"/><path d="M16 3.146l15.282 5.73a1.2 1.2 0 0 1 0 2.248L16 16.854.718 11.124a1.2 1.2 0 0 1 0-2.248L16 3.146z" stroke="#FFF" stroke-width="1.6"/></g></svg><svg width="32" height="32" viewBox="0 0 32 32" y="92" xmlns="http://www.w3.org/2000/svg"><path d="M4.5 4h10a.5.5 0 0 1 .5.5v10a.5.5 0 0 1-.5.5h-10a.5.5 0 0 1-.5-.5v-10a.5.5 0 0 1 .5-.5zm13 0h10a.5.5 0 0 1 .5.5v10a.5.5 0 0 1-.5.5h-10a.5.5 0 0 1-.5-.5v-10a.5.5 0 0 1 .5-.5zm0 13h10a.5.5 0 0 1 .5.5v10a.5.5 0 0 1-.5.5h-10a.5.5 0 0 1-.5-.5v-10a.5.5 0 0 1 .5-.5zm-13 0h10a.5.5 0 0 1 .5.5v10a.5.5 0 0 1-.5.5h-10a.5.5 0 0 1-.5-.5v-10a.5.5 0 0 1 .5-.5z" fill="#0085DD" fill-rule="evenodd"/></svg><svg width="120" height="30" viewBox="0 0 120 30" y="30" xmlns="http://www.w3.org/2000/svg"><defs><path d="M.445.694a.453.453 0 0 0 .062.69 5.807 5.807 0 0 1 1.71 3.105 2.01 2.01 0 0 0 .063.382 1.9 1.9 0 0 0 .482.837 1.86 1.86 0 0 0 2.648 0c.73-.74.73-1.935 0-2.673a1.853 1.853 0 0 0-1.015-.528c-.037-.008-.075-.01-.113-.018A5.716 5.716 0 0 1 1.26.882C1.196.82 1.138.76 1.08.693a.44.44 0 0 0-.634 0z" id="e"/><path d="M2.48 1.447a1.892 1.892 0 0 0-.538 1.14A5.83 5.83 0 0 1 .158 5.82a.455.455 0 0 0 0 .64.444.444 0 0 0 .598.03c.012-.01.025-.02.035-.03a.465.465 0 0 0 .054-.063A5.728 5.728 0 0 1 3.918 4.67a1.828 1.828 0 0 0 .38-.064c.304-.083.59-.244.83-.486a1.902 1.902 0 0 0 0-2.673 1.86 1.86 0 0 0-2.65 0z" id="f"/><path d="M.916.78a1.903 1.903 0 0 0 0 2.674 1.87 1.87 0 0 0 1.015.526c.04.006.077.012.115.016a5.734 5.734 0 0 1 3.204 1.8.446.446 0 0 0 .632 0 .456.456 0 0 0-.06-.69c-.045-.043-.09-.084-.13-.127A5.83 5.83 0 0 1 4.107 2a1.495 1.495 0 0 0-.02-.183A1.89 1.89 0 0 0 3.564.78a1.86 1.86 0 0 0-2.65 0z" id="g"/><path d="M5.57.934c-.012.01-.025.02-.035.03a.564.564 0 0 0-.053.065l-.124.13a5.733 5.733 0 0 1-2.95 1.595 1.856 1.856 0 0 0-1.21.55 1.902 1.902 0 0 0 0 2.672 1.86 1.86 0 0 0 2.648 0c.258-.26.424-.577.5-.91.01-.038.016-.076.023-.114l.013-.115a5.828 5.828 0 0 1 1.784-3.235.454.454 0 0 0 0-.64.45.45 0 0 0-.6-.03z" id="h"/></defs><g fill="#40CFFF" fill-rule="evenodd"><path d="M36.755 12.43c3.378-1.704 6.424-4.074 8.823-6.865h1.34c2.513 2.872 5.547 5.225 8.79 6.813l-.965 1.767c-3.258-1.73-6.068-3.99-8.352-6.723l-.142-.17-.14.17c-2.13 2.582-4.968 4.85-8.433 6.74l-.92-1.73zm.842 11.376v-1.702h3.078v-7.967h1.694v7.967H46v-10.98h1.74v4.567h5.4v1.705h-5.4v4.71h6.912v1.702H37.597zM58.75 10.202c1.094 3.105 1.942 6.053 2.587 8.998l1.604-.392a72.12 72.12 0 0 0-2.7-9.114l-1.49.508zm12.813 8.507l1.522.537c1.098-2.48 2.017-5.42 2.808-8.973l-1.55-.442c-.962 4.096-1.802 6.778-2.78 8.876zm-13.3 5.095h18.13V22.05h-6.228V5.69h-1.8v16.36H66.02V5.69h-1.8v16.36h-5.956v1.757zm25.693-12.21h6.326v-4.89H89.11v3.553h-1.335V5.573l-1.345-.01.046 4.695h-1.36V6.703h-1.16v4.89zm-5.55-.744l.776 1.46a15.533 15.533 0 0 0 4.02-5.86l-1.37-.74c-.743 1.866-2.064 3.848-3.425 5.14zM94.2 17.168l-.193-.624c-.385-1.242-.773-2.966-1.093-4.856l-.008-.04.012-.04c.063-.235.093-.405.125-.583.03-.172.062-.35.124-.595l.034-.14h1.94l-.005.19c-.09 2.416-.34 4.396-.77 6.053l-.164.633zm-11.092 5.957l1.104 1.153c1.136-1.267 1.73-3.057 1.767-5.322V17.83h1.984v3.26a1.21 1.21 0 0 1-.42.727l.7 1.326 3.14-2.616-.406-1.26-1.504 1.28V16.43h-5.112v2.528c-.023 1.98-.4 3.24-1.256 4.166zm-2.383 1.434h1.425l.033-10.634c.398-.73.7-1.36.92-1.92l-1.325-.718c-.63 1.687-1.824 3.478-3.387 5.078l.718 1.35c.287-.282.58-.62.864-.945.15-.17.294-.338.43-.49l.325-.356v8.633zm3.1-9.815h6.252V13.32h-6.252v1.423zm10.385 5.88l.157.326c.69 1.436 1.49 2.71 2.173 3.46l1.02-1.513c-.847-.797-1.8-2.22-2.576-3.856l-.035-.07.026-.075c.933-2.48 1.394-5.08 1.495-8.426l.007-.183h.892V8.81h-3.85l.036-.217c.103-.63.197-1.384.287-2.114l.083-.657-1.492-.268c-.38 3.61-1.052 6.595-2 8.878l-.226.543.916 1.214c.227-.433.463-.936.747-1.59l.23-.533.123.57a34.226 34.226 0 0 0 1.172 4.26l.025.07-.03.07c-.664 1.516-1.66 2.913-2.816 3.95l.918 1.245a13.677 13.677 0 0 0 2.543-3.29l.173-.318zm12.647-7.743h10.26v-1.5h-10.26v1.5zm.03 3.128h10.26l-.003-1.505H106.9l-.012 1.505zm1.64 6.695h7.14v-3.46h-7.14v3.46zm-1.624 1.46h10.354V17.72h-10.354v6.445zM105.4 9.823h13.27v-1.58h-5.86l-.918-2.45-1.617.44.806 2.01h-5.68v1.58zm-3.353 14.736h1.657l.022-14.11c.65-1.237 1.184-2.6 1.68-4.275l-1.624-.763c-.997 3.496-2.366 6.137-4.18 8.064l.672 1.863c.118-.135.24-.27.362-.404.37-.41.753-.836 1.077-1.27l.334-.45V24.56z"/><use xlink:href="#e" transform="translate(21.378 23.14)"/><use xlink:href="#f" transform="translate(26.955 19.4)"/><use xlink:href="#g" transform="translate(23.237 14.72)"/><use xlink:href="#h" transform="translate(17.66 17.528)"/><path d="M13.604 2.172c-.546 0-1.112.032-1.68.094-3.33.366-6.357 1.804-8.522 4.048a11.47 11.47 0 0 0-2.065 2.938 10.325 10.325 0 0 0-1.058 4.55c0 2.03.61 4.034 1.77 5.793.604.918 1.584 2.048 2.437 2.812l.047.042v.062l-.418 3.27c-.012.034-.025.067-.032.1-.008.032-.01.065-.012.098l-.008.06c-.002.014-.004.027-.004.04 0 .018.004.033.006.05l.006.044a.895.895 0 0 0 .886.812.878.878 0 0 0 .443-.122l.073-.042 3.908-1.98.054.014c.778.226 1.593.384 2.49.484a15.084 15.084 0 0 0 6.465-.686 2.035 2.035 0 0 1-1.04-1.768c-.736.224-1.49.38-2.244.467a13.232 13.232 0 0 1-2.937.008l-.187-.022-.11-.016a12.597 12.597 0 0 1-1.925-.407 1.17 1.17 0 0 0-.92.097.8.8 0 0 0-.076.038l-2.465 1.467c-.252.147-.476-.012-.476-.242l.37-1.475.195-.74a.866.866 0 0 0-.305-.965 11.008 11.008 0 0 1-1.003-.85 9.906 9.906 0 0 1-1.42-1.695c-.945-1.435-1.444-3.062-1.444-4.707 0-1.278.29-2.52.86-3.69a9.46 9.46 0 0 1 1.702-2.42c1.822-1.888 4.38-3.1 7.204-3.408a12.83 12.83 0 0 1 2.934.006c2.81.324 5.354 1.54 7.16 3.427a9.44 9.44 0 0 1 1.695 2.425 8.367 8.367 0 0 1 .842 3.808c.7-.32 1.522-.21 2.114.29a10.325 10.325 0 0 0-1.03-4.99 11.46 11.46 0 0 0-2.054-2.945c-2.147-2.245-5.156-3.69-8.472-4.07a15.44 15.44 0 0 0-1.756-.103"/></g></svg><svg width="31" height="26" viewBox="0 0 31 26" x="120" y="64" xmlns="http://www.w3.org/2000/svg"><g fill="none" fill-rule="evenodd"><path fill="#0082F0" d="M24.27 6.9a10.746 10.746 0 0 0-1.945-2.764C20.295 2.034 17.453.68 14.322.323a14.773 14.773 0 0 0-1.656-.096c-.51 0-1.044.03-1.585.09-3.142.34-6 1.69-8.045 3.79a10.757 10.757 0 0 0-1.955 2.76 9.634 9.634 0 0 0-1.004 4.276c0 1.91.58 3.79 1.678 5.442.556.837 1.465 1.89 2.302 2.634l-.378 2.975c-.015.04-.03.08-.04.123-.01.04-.012.08-.016.12-.002.03-.01.06-.01.09 0 .033.008.065.01.098.05.49.458.872.96.872.175 0 .337-.05.478-.13l.014-.01c.02-.01.042-.022.062-.035l.903-.454 2.69-1.353a13.93 13.93 0 0 0 2.35.453 14.54 14.54 0 0 0 3.24-.01 14.092 14.092 0 0 0 3.174-.742 1.752 1.752 0 0 1-1.192-1.832c-.72.23-1.472.393-2.25.482a12.172 12.172 0 0 1-2.716.008c-.09-.01-.182-.025-.274-.037a11.976 11.976 0 0 1-1.78-.375 1.217 1.217 0 0 0-.37-.057c-.2 0-.392.052-.588.153-.026.015-.05.026-.076.04l-2.21 1.304-.097.057c-.047.03-.075.04-.1.04a.15.15 0 0 1-.146-.152l.085-.345.096-.375.162-.614.178-.686a.93.93 0 0 0-.334-1.033 9.906 9.906 0 0 1-.923-.777c-.5-.475-.94-.994-1.31-1.55-.87-1.308-1.328-2.792-1.328-4.293 0-1.164.266-2.297.79-3.366a8.633 8.633 0 0 1 1.57-2.21c1.68-1.728 4.044-2.837 6.655-3.12.454-.05.9-.075 1.328-.075.45 0 .916.027 1.388.08 2.6.296 4.95 1.41 6.617 3.138a8.618 8.618 0 0 1 1.56 2.215 7.584 7.584 0 0 1 .78 3.337c0 .12-.008.24-.014.36a1.746 1.746 0 0 1 2.15.25c.03.03.053.063.08.094.02-.246.03-.49.03-.74a9.634 9.634 0 0 0-.986-4.24"/><path fill="#FB6500" d="M24.15 22.148a1.7 1.7 0 0 0-.21-.035 5.377 5.377 0 0 1-2.997-1.67.418.418 0 1 0-.534.64l.12.12a5.39 5.39 0 0 1 1.477 2.76 1.715 1.715 0 0 0 .06.356 1.75 1.75 0 0 0 2.925.775 1.754 1.754 0 0 0-.844-2.948"/><path fill="#0082F0" d="M29.944 17.673a1.75 1.75 0 0 0-2.98 1.056 5.388 5.388 0 0 1-1.667 2.997.42.42 0 1 0 .64.534l.118-.12a5.376 5.376 0 0 1 2.758-1.48 1.71 1.71 0 0 0 .355-.06 1.754 1.754 0 0 0 .776-2.93"/><path fill="#2DBC00" d="M22.53 12.717a1.754 1.754 0 0 0 1.054 2.982 5.376 5.376 0 0 1 2.996 1.67.42.42 0 1 0 .534-.643 5.39 5.39 0 0 1-1.6-2.88 1.625 1.625 0 0 0-.058-.354 1.75 1.75 0 0 0-2.926-.777"/><path fill="#FC0" d="M20.543 19.19l.015-.106a5.393 5.393 0 0 1 1.668-3 .42.42 0 1 0-.64-.534 5.375 5.375 0 0 1-2.876 1.6 1.73 1.73 0 0 0-.355.06 1.754 1.754 0 0 0-.776 2.93 1.75 1.75 0 0 0 2.962-.95"/></g></svg><svg width="26" height="26" viewBox="0 0 26 26" x="60" y="92" xmlns="http://www.w3.org/2000/svg"><g fill="none" fill-rule="evenodd"><circle cx="13" cy="13" r="12" fill="#000" stroke="#FFF" stroke-width="2"/><path fill="#FFF" d="M14.414 13l3.536 3.536a1 1 0 0 1-1.414 1.414L13 14.414 9.464 17.95a1 1 0 0 1-1.414-1.414L11.586 13 8.05 9.464A1 1 0 0 1 9.464 8.05L13 11.586l3.536-3.536a1 1 0 0 1 1.414 1.414L14.414 13z"/></g></svg><svg width="28" height="28" viewBox="0 0 28 28" x="32" y="92" xmlns="http://www.w3.org/2000/svg"><g fill="none" fill-rule="evenodd"><circle fill="#0085DE" cx="14" cy="14" r="14"/><path d="M8 14h12m-5-5l5 5-5 5" stroke="#FFF"/></g></svg></svg>